<svg xmlns="http://www.w3.org/2000/svg" viewBox="0 0 1600 1000" width="1600" height="1000" font-family="Inter, 'Segoe UI', Arial, sans-serif">

<defs>
  <filter id="softShadow" x="-30%" y="-30%" width="160%" height="160%">
    <feDropShadow dx="0" dy="3" stdDeviation="5" flood-color="rgba(0,0,0,0.15)"/>
  </filter>
</defs>

<rect x="0" y="0" width="1600" height="1000" fill="#FFFFFF"/>
<text x="786" y="52" text-anchor="middle" font-family="Inter, 'Segoe UI', Arial, sans-serif" font-size="30" font-weight="700" fill="#2E7D32">🌱 AgriVision</text>
<text x="800" y="80" text-anchor="middle" font-family="Inter, 'Segoe UI', Arial, sans-serif" font-size="18" font-weight="400" fill="#757575">AI Disease Detection Pipeline</text>
<line x1="800.0" y1="176.0" x2="800.0" y2="203.0" stroke="#757575" stroke-width="1.6"/>
<polyline points="796.2,194.8 800.0,203.0 803.8,194.8" fill="none" stroke="#757575" stroke-width="1.6" stroke-linecap="round" stroke-linejoin="round"/>
<line x1="800.0" y1="273.0" x2="800.0" y2="300.0" stroke="#757575" stroke-width="1.6"/>
<polyline points="796.2,291.8 800.0,300.0 803.8,291.8" fill="none" stroke="#757575" stroke-width="1.6" stroke-linecap="round" stroke-linejoin="round"/>
<line x1="800.0" y1="370.0" x2="800.0" y2="397.0" stroke="#757575" stroke-width="1.6"/>
<polyline points="796.2,388.8 800.0,397.0 803.8,388.8" fill="none" stroke="#757575" stroke-width="1.6" stroke-linecap="round" stroke-linejoin="round"/>
<line x1="800.0" y1="467.0" x2="800.0" y2="494.0" stroke="#757575" stroke-width="1.6"/>
<polyline points="796.2,485.8 800.0,494.0 803.8,485.8" fill="none" stroke="#757575" stroke-width="1.6" stroke-linecap="round" stroke-linejoin="round"/>
<line x1="800.0" y1="614.0" x2="800.0" y2="641.0" stroke="#757575" stroke-width="1.6"/>
<polyline points="796.2,632.8 800.0,641.0 803.8,632.8" fill="none" stroke="#757575" stroke-width="1.6" stroke-linecap="round" stroke-linejoin="round"/>
<rect x="780.0" y="616.5" width="40" height="20" rx="4" fill="#FFFFFF"/>
<text x="800.0" y="632.5" text-anchor="middle" font-family="Inter, 'Segoe UI', Arial, sans-serif" font-size="13" font-weight="700" fill="#2E7D32">YES</text>
<line x1="800.0" y1="711.0" x2="800.0" y2="738.0" stroke="#757575" stroke-width="1.6"/>
<polyline points="796.2,729.8 800.0,738.0 803.8,729.8" fill="none" stroke="#757575" stroke-width="1.6" stroke-linecap="round" stroke-linejoin="round"/>
<line x1="800.0" y1="808.0" x2="800.0" y2="835.0" stroke="#757575" stroke-width="1.6"/>
<polyline points="796.2,826.8 800.0,835.0 803.8,826.8" fill="none" stroke="#757575" stroke-width="1.6" stroke-linecap="round" stroke-linejoin="round"/>
<rect x="410.0" y="106.0" width="780" height="70" rx="14" fill="#66BB6A" stroke="#1B5E20" stroke-width="1.8" filter="url(#softShadow)"/>
<circle cx="444.0" cy="124.0" r="14" fill="#FFFFFF" opacity="0.9"/>
<text x="444.0" y="129.0" text-anchor="middle" font-family="Inter, 'Segoe UI', Arial, sans-serif" font-size="13" font-weight="700" fill="#66BB6A">1</text>
<circle cx="488.0" cy="141.0" r="23.0" fill="#FFFFFF"/>
<rect x="475.1" y="134.3" width="25.8" height="17.5" rx="4" fill="none" stroke="#2E7D32" stroke-width="2.6"/>
<rect x="483.4" y="128.3" width="9.2" height="6" rx="1.5" fill="#2E7D32"/>
<circle cx="488.0" cy="143.0" r="5.5" fill="none" stroke="#2E7D32" stroke-width="2.4"/>
<text x="531.0" y="135.0" font-family="Inter, 'Segoe UI', Arial, sans-serif" font-size="18" font-weight="700" fill="#FFFFFF">Capture Leaf Image</text>
<text x="531.0" y="158.0" font-family="Inter, 'Segoe UI', Arial, sans-serif" font-size="14" font-weight="400" fill="#E8F5E9">Raspberry Pi Camera Module</text>
<rect x="410.0" y="203.0" width="780" height="70" rx="14" fill="#66BB6A" stroke="#1B5E20" stroke-width="1.8" filter="url(#softShadow)"/>
<circle cx="444.0" cy="221.0" r="14" fill="#FFFFFF" opacity="0.9"/>
<text x="444.0" y="226.0" text-anchor="middle" font-family="Inter, 'Segoe UI', Arial, sans-serif" font-size="13" font-weight="700" fill="#66BB6A">2</text>
<circle cx="488.0" cy="238.0" r="23.0" fill="#FFFFFF"/>
<rect x="475.1" y="228.3" width="25.8" height="19.3" rx="3" fill="none" stroke="#2E7D32" stroke-width="2.4"/>
<circle cx="481.3" cy="234.1" r="2.5" fill="#2E7D32"/>
<path d="M 477.1 244.7 L 485.9 237.0 L 491.9 242.3 L 497.0 236.1 L 498.9 244.7 Z" fill="#2E7D32"/>
<text x="531.0" y="232.0" font-family="Inter, 'Segoe UI', Arial, sans-serif" font-size="18" font-weight="700" fill="#FFFFFF">Image Preprocessing</text>
<text x="531.0" y="255.0" font-family="Inter, 'Segoe UI', Arial, sans-serif" font-size="14" font-weight="400" fill="#E8F5E9">OpenCV  —  Resize • Normalize • Noise Reduction</text>
<rect x="410.0" y="300.0" width="780" height="70" rx="14" fill="#66BB6A" stroke="#1B5E20" stroke-width="1.8" filter="url(#softShadow)"/>
<circle cx="444.0" cy="318.0" r="14" fill="#FFFFFF" opacity="0.9"/>
<text x="444.0" y="323.0" text-anchor="middle" font-family="Inter, 'Segoe UI', Arial, sans-serif" font-size="13" font-weight="700" fill="#66BB6A">3</text>
<circle cx="488.0" cy="335.0" r="23.0" fill="#FFFFFF"/>
<path d="M 477.0 335.0 q -6 -11.0 5.5 -12.1 q 5.5 -5.5 11.0 0 q 5.5 -5.5 11.0 0 q 12.1 1.1 5.5 12.1 q 6.6 5.5 0 12.1 q 1.1 7.7 -8.8 7.7 q -3.3 3.9 -9.9 0 q -8.8 0 -7.7 -7.7 q -6.6 -5.5 0 -12.1 Z" fill="none" stroke="#2E7D32" stroke-width="2.2" stroke-linejoin="round"/>
<line x1="488.0" y1="325.1" x2="488.0" y2="344.9" stroke="#2E7D32" stroke-width="1.6"/>
<path d="M 482.5 331.7 q 4.4 3.3 0 6.6" fill="none" stroke="#2E7D32" stroke-width="1.4"/>
<path d="M 493.5 331.7 q -4.4 3.3 0 6.6" fill="none" stroke="#2E7D32" stroke-width="1.4"/>
<text x="531.0" y="329.0" font-family="Inter, 'Segoe UI', Arial, sans-serif" font-size="18" font-weight="700" fill="#FFFFFF">TensorFlow CNN Model</text>
<text x="531.0" y="352.0" font-family="Inter, 'Segoe UI', Arial, sans-serif" font-size="14" font-weight="400" fill="#E8F5E9">Deep Learning Inference</text>
<rect x="410.0" y="397.0" width="780" height="70" rx="14" fill="#66BB6A" stroke="#1B5E20" stroke-width="1.8" filter="url(#softShadow)"/>
<circle cx="444.0" cy="415.0" r="14" fill="#FFFFFF" opacity="0.9"/>
<text x="444.0" y="420.0" text-anchor="middle" font-family="Inter, 'Segoe UI', Arial, sans-serif" font-size="13" font-weight="700" fill="#66BB6A">4</text>
<circle cx="488.0" cy="432.0" r="23.0" fill="#FFFFFF"/>
<rect x="477.9" y="431.1" width="4.6" height="10.1" rx="1.5" fill="#2E7D32"/>
<rect x="486.2" y="424.6" width="4.6" height="16.6" rx="1.5" fill="#2E7D32"/>
<rect x="494.4" y="428.3" width="4.6" height="12.9" rx="1.5" fill="#2E7D32"/>
<line x1="475.1" y1="441.2" x2="500.9" y2="441.2" stroke="#2E7D32" stroke-width="2"/>
<text x="531.0" y="426.0" font-family="Inter, 'Segoe UI', Arial, sans-serif" font-size="18" font-weight="700" fill="#FFFFFF">Disease Classification</text>
<text x="531.0" y="449.0" font-family="Inter, 'Segoe UI', Arial, sans-serif" font-size="14" font-weight="400" fill="#E8F5E9">Supported Crops:  Banana • Tomato • Chilli</text>
<polygon points="800,494 950.0,554.0 800,614 650.0,554.0" fill="#2E7D32" stroke="#1B5E20" stroke-width="1.8" filter="url(#softShadow)"/>
<text x="800" y="560.0" text-anchor="middle" font-family="Inter, 'Segoe UI', Arial, sans-serif" font-size="17" font-weight="700" fill="#FFFFFF">Prediction Successful?</text>
<rect x="410.0" y="641.0" width="780" height="70" rx="14" fill="#66BB6A" stroke="#1B5E20" stroke-width="1.8" filter="url(#softShadow)"/>
<circle cx="444.0" cy="659.0" r="14" fill="#FFFFFF" opacity="0.9"/>
<text x="444.0" y="664.0" text-anchor="middle" font-family="Inter, 'Segoe UI', Arial, sans-serif" font-size="13" font-weight="700" fill="#66BB6A">5</text>
<circle cx="488.0" cy="676.0" r="23.0" fill="#FFFFFF"/>
<path d="M 488.0 663.6 L 488.0 688.4 L 496.3 681.8 L 479.7 670.2 M 488.0 663.6 L 496.3 670.2 L 479.7 681.8 L 488.0 688.4" fill="none" stroke="#2E7D32" stroke-width="2.4" stroke-linejoin="round" stroke-linecap="round"/>
<text x="531.0" y="670.0" font-family="Inter, 'Segoe UI', Arial, sans-serif" font-size="18" font-weight="700" fill="#FFFFFF">Bluetooth Notification</text>
<text x="531.0" y="693.0" font-family="Inter, 'Segoe UI', Arial, sans-serif" font-size="14" font-weight="400" fill="#E8F5E9">Send Prediction to Farmer</text>
<rect x="410.0" y="738.0" width="780" height="70" rx="14" fill="#66BB6A" stroke="#1B5E20" stroke-width="1.8" filter="url(#softShadow)"/>
<circle cx="444.0" cy="756.0" r="14" fill="#FFFFFF" opacity="0.9"/>
<text x="444.0" y="761.0" text-anchor="middle" font-family="Inter, 'Segoe UI', Arial, sans-serif" font-size="13" font-weight="700" fill="#66BB6A">6</text>
<circle cx="488.0" cy="773.0" r="23.0" fill="#FFFFFF"/>
<rect x="475.1" y="762.7" width="25.8" height="16.6" rx="3" fill="none" stroke="#2E7D32" stroke-width="2.4"/>
<line x1="488.0" y1="779.3" x2="488.0" y2="785.3" stroke="#2E7D32" stroke-width="2.2"/>
<line x1="482.8" y1="785.3" x2="493.2" y2="785.3" stroke="#2E7D32" stroke-width="2.4"/>
<text x="531.0" y="767.0" font-family="Inter, 'Segoe UI', Arial, sans-serif" font-size="18" font-weight="700" fill="#FFFFFF">Display Disease Name</text>
<text x="531.0" y="790.0" font-family="Inter, 'Segoe UI', Arial, sans-serif" font-size="14" font-weight="400" fill="#E8F5E9">Robot Output</text>
<rect x="410.0" y="835.0" width="780" height="70" rx="14" fill="#2E7D32" stroke="#1B5E20" stroke-width="1.8" filter="url(#softShadow)"/>
<circle cx="444.0" cy="853.0" r="14" fill="#FFFFFF" opacity="0.9"/>
<text x="444.0" y="858.0" text-anchor="middle" font-family="Inter, 'Segoe UI', Arial, sans-serif" font-size="13" font-weight="700" fill="#2E7D32">7</text>
<circle cx="488.0" cy="870.0" r="23.0" fill="#FFFFFF"/>
<rect x="479.7" y="861.7" width="16.6" height="16.6" rx="6" fill="none" stroke="#FFFFFF" stroke-width="2.4"/>
<circle cx="484.4" cy="870.0" r="2.6" fill="#FFFFFF"/>
<circle cx="491.6" cy="870.0" r="2.6" fill="#FFFFFF"/>
<line x1="488.0" y1="861.7" x2="488.0" y2="855.7" stroke="#FFFFFF" stroke-width="2"/>
<circle cx="488.0" cy="853.7" r="2" fill="#FFFFFF"/>
<circle cx="477.7" cy="878.3" r="2.8" fill="#FFFFFF"/>
<circle cx="498.3" cy="878.3" r="2.8" fill="#FFFFFF"/>
<text x="531.0" y="864.0" font-family="Inter, 'Segoe UI', Arial, sans-serif" font-size="18" font-weight="700" fill="#FFFFFF">Continue Autonomous Navigation</text>
<text x="531.0" y="887.0" font-family="Inter, 'Segoe UI', Arial, sans-serif" font-size="14" font-weight="400" fill="#E8F5E9">Robot Resumes Crop Monitoring</text>
</svg>