<svg xmlns="http://www.w3.org/2000/svg" viewBox="0 0 1600 1000" width="1600" height="1000" font-family="Inter, 'Segoe UI', Arial, sans-serif">

<defs>
  <filter id="softShadow" x="-30%" y="-30%" width="160%" height="160%">
    <feDropShadow dx="0" dy="3" stdDeviation="5" flood-color="rgba(0,0,0,0.15)"/>
  </filter>
</defs>

<rect x="0" y="0" width="1600" height="1000" fill="#FFFFFF"/>
<text x="786" y="46" text-anchor="middle" font-family="Inter, 'Segoe UI', Arial, sans-serif" font-size="28" font-weight="700" fill="#2E7D32">🌱 AgriVision</text>
<text x="800" y="72" text-anchor="middle" font-family="Inter, 'Segoe UI', Arial, sans-serif" font-size="17" font-weight="400" fill="#757575">Software Architecture — Layered View</text>
<rect x="60" y="112.0" width="152.0" height="95.0" rx="8" fill="#ECEFF1" stroke="#90A4AE" stroke-width="1.2"/>
<text x="136.0" y="164.5" text-anchor="middle" font-family="Inter, 'Segoe UI', Arial, sans-serif" font-size="13" font-weight="700" fill="#455A64">Application Layer</text>
<rect x="228.0" y="112.0" width="255.2" height="95.0" rx="10" fill="#66BB6A" stroke="#1B5E20" stroke-width="1.4" filter="url(#softShadow)"/>
<text x="355.6" y="156.5" text-anchor="middle" font-family="Inter, 'Segoe UI', Arial, sans-serif" font-size="13.5" font-weight="700" fill="#FFFFFF">Main Control</text>
<text x="355.6" y="173.5" text-anchor="middle" font-family="Inter, 'Segoe UI', Arial, sans-serif" font-size="13.5" font-weight="700" fill="#FFFFFF">Application</text>
<rect x="497.2" y="112.0" width="255.2" height="95.0" rx="10" fill="#66BB6A" stroke="#1B5E20" stroke-width="1.4" filter="url(#softShadow)"/>
<text x="624.8" y="156.5" text-anchor="middle" font-family="Inter, 'Segoe UI', Arial, sans-serif" font-size="13.5" font-weight="700" fill="#FFFFFF">Disease Detection</text>
<text x="624.8" y="173.5" text-anchor="middle" font-family="Inter, 'Segoe UI', Arial, sans-serif" font-size="13.5" font-weight="700" fill="#FFFFFF">Module</text>
<rect x="766.4" y="112.0" width="255.2" height="95.0" rx="10" fill="#66BB6A" stroke="#1B5E20" stroke-width="1.4" filter="url(#softShadow)"/>
<text x="894.0" y="156.5" text-anchor="middle" font-family="Inter, 'Segoe UI', Arial, sans-serif" font-size="13.5" font-weight="700" fill="#FFFFFF">Navigation</text>
<text x="894.0" y="173.5" text-anchor="middle" font-family="Inter, 'Segoe UI', Arial, sans-serif" font-size="13.5" font-weight="700" fill="#FFFFFF">Module</text>
<rect x="1035.6" y="112.0" width="255.2" height="95.0" rx="10" fill="#66BB6A" stroke="#1B5E20" stroke-width="1.4" filter="url(#softShadow)"/>
<text x="1163.2" y="156.5" text-anchor="middle" font-family="Inter, 'Segoe UI', Arial, sans-serif" font-size="13.5" font-weight="700" fill="#FFFFFF">Bluetooth</text>
<text x="1163.2" y="173.5" text-anchor="middle" font-family="Inter, 'Segoe UI', Arial, sans-serif" font-size="13.5" font-weight="700" fill="#FFFFFF">Communication</text>
<rect x="1304.8" y="112.0" width="255.2" height="95.0" rx="10" fill="#66BB6A" stroke="#1B5E20" stroke-width="1.4" filter="url(#softShadow)"/>
<text x="1432.4" y="156.5" text-anchor="middle" font-family="Inter, 'Segoe UI', Arial, sans-serif" font-size="13.5" font-weight="700" fill="#FFFFFF">Data Logging</text>
<text x="1432.4" y="173.5" text-anchor="middle" font-family="Inter, 'Segoe UI', Arial, sans-serif" font-size="13.5" font-weight="700" fill="#FFFFFF">&amp; Reporting</text>
<rect x="60" y="265.0" width="152.0" height="95.0" rx="8" fill="#ECEFF1" stroke="#90A4AE" stroke-width="1.2"/>
<text x="136.0" y="317.5" text-anchor="middle" font-family="Inter, 'Segoe UI', Arial, sans-serif" font-size="13" font-weight="700" fill="#455A64">Processing Layer</text>
<rect x="228.0" y="265.0" width="255.2" height="95.0" rx="10" fill="#E3F2FD" stroke="#1565C0" stroke-width="1.4" filter="url(#softShadow)"/>
<text x="355.6" y="309.5" text-anchor="middle" font-family="Inter, 'Segoe UI', Arial, sans-serif" font-size="13.5" font-weight="700" fill="#1565C0">Image</text>
<text x="355.6" y="326.5" text-anchor="middle" font-family="Inter, 'Segoe UI', Arial, sans-serif" font-size="13.5" font-weight="700" fill="#1565C0">Processing</text>
<rect x="497.2" y="265.0" width="255.2" height="95.0" rx="10" fill="#E3F2FD" stroke="#1565C0" stroke-width="1.4" filter="url(#softShadow)"/>
<text x="624.8" y="309.5" text-anchor="middle" font-family="Inter, 'Segoe UI', Arial, sans-serif" font-size="13.5" font-weight="700" fill="#1565C0">AI Model</text>
<text x="624.8" y="326.5" text-anchor="middle" font-family="Inter, 'Segoe UI', Arial, sans-serif" font-size="13.5" font-weight="700" fill="#1565C0">(TensorFlow)</text>
<rect x="766.4" y="265.0" width="255.2" height="95.0" rx="10" fill="#E3F2FD" stroke="#1565C0" stroke-width="1.4" filter="url(#softShadow)"/>
<text x="894.0" y="309.5" text-anchor="middle" font-family="Inter, 'Segoe UI', Arial, sans-serif" font-size="13.5" font-weight="700" fill="#1565C0">Decision</text>
<text x="894.0" y="326.5" text-anchor="middle" font-family="Inter, 'Segoe UI', Arial, sans-serif" font-size="13.5" font-weight="700" fill="#1565C0">Making</text>
<rect x="1035.6" y="265.0" width="255.2" height="95.0" rx="10" fill="#E3F2FD" stroke="#1565C0" stroke-width="1.4" filter="url(#softShadow)"/>
<text x="1163.2" y="309.5" text-anchor="middle" font-family="Inter, 'Segoe UI', Arial, sans-serif" font-size="13.5" font-weight="700" fill="#1565C0">Path</text>
<text x="1163.2" y="326.5" text-anchor="middle" font-family="Inter, 'Segoe UI', Arial, sans-serif" font-size="13.5" font-weight="700" fill="#1565C0">Planning</text>
<rect x="1304.8" y="265.0" width="255.2" height="95.0" rx="10" fill="#E3F2FD" stroke="#1565C0" stroke-width="1.4" filter="url(#softShadow)"/>
<text x="1432.4" y="309.5" text-anchor="middle" font-family="Inter, 'Segoe UI', Arial, sans-serif" font-size="13.5" font-weight="700" fill="#1565C0">Sensor Data</text>
<text x="1432.4" y="326.5" text-anchor="middle" font-family="Inter, 'Segoe UI', Arial, sans-serif" font-size="13.5" font-weight="700" fill="#1565C0">Fusion</text>
<rect x="60" y="418.0" width="152.0" height="95.0" rx="8" fill="#ECEFF1" stroke="#90A4AE" stroke-width="1.2"/>
<text x="136.0" y="470.5" text-anchor="middle" font-family="Inter, 'Segoe UI', Arial, sans-serif" font-size="13" font-weight="700" fill="#455A64">Interface Layer</text>
<rect x="228.0" y="418.0" width="255.2" height="95.0" rx="10" fill="#FFF3CD" stroke="#E68A00" stroke-width="1.4" filter="url(#softShadow)"/>
<text x="355.6" y="462.5" text-anchor="middle" font-family="Inter, 'Segoe UI', Arial, sans-serif" font-size="13.5" font-weight="700" fill="#7A5B00">Camera</text>
<text x="355.6" y="479.5" text-anchor="middle" font-family="Inter, 'Segoe UI', Arial, sans-serif" font-size="13.5" font-weight="700" fill="#7A5B00">Interface</text>
<rect x="497.2" y="418.0" width="255.2" height="95.0" rx="10" fill="#FFF3CD" stroke="#E68A00" stroke-width="1.4" filter="url(#softShadow)"/>
<text x="624.8" y="462.5" text-anchor="middle" font-family="Inter, 'Segoe UI', Arial, sans-serif" font-size="13.5" font-weight="700" fill="#7A5B00">Motor Control</text>
<text x="624.8" y="479.5" text-anchor="middle" font-family="Inter, 'Segoe UI', Arial, sans-serif" font-size="13.5" font-weight="700" fill="#7A5B00">Interface</text>
<rect x="766.4" y="418.0" width="255.2" height="95.0" rx="10" fill="#FFF3CD" stroke="#E68A00" stroke-width="1.4" filter="url(#softShadow)"/>
<text x="894.0" y="462.5" text-anchor="middle" font-family="Inter, 'Segoe UI', Arial, sans-serif" font-size="13.5" font-weight="700" fill="#7A5B00">Sensor</text>
<text x="894.0" y="479.5" text-anchor="middle" font-family="Inter, 'Segoe UI', Arial, sans-serif" font-size="13.5" font-weight="700" fill="#7A5B00">Interface</text>
<rect x="1035.6" y="418.0" width="255.2" height="95.0" rx="10" fill="#FFF3CD" stroke="#E68A00" stroke-width="1.4" filter="url(#softShadow)"/>
<text x="1163.2" y="462.5" text-anchor="middle" font-family="Inter, 'Segoe UI', Arial, sans-serif" font-size="13.5" font-weight="700" fill="#7A5B00">Bluetooth</text>
<text x="1163.2" y="479.5" text-anchor="middle" font-family="Inter, 'Segoe UI', Arial, sans-serif" font-size="13.5" font-weight="700" fill="#7A5B00">Interface</text>
<rect x="1304.8" y="418.0" width="255.2" height="95.0" rx="10" fill="#FFF3CD" stroke="#E68A00" stroke-width="1.4" filter="url(#softShadow)"/>
<text x="1432.4" y="462.5" text-anchor="middle" font-family="Inter, 'Segoe UI', Arial, sans-serif" font-size="13.5" font-weight="700" fill="#7A5B00">Storage</text>
<text x="1432.4" y="479.5" text-anchor="middle" font-family="Inter, 'Segoe UI', Arial, sans-serif" font-size="13.5" font-weight="700" fill="#7A5B00">Interface</text>
<rect x="60" y="571.0" width="152.0" height="95.0" rx="8" fill="#ECEFF1" stroke="#90A4AE" stroke-width="1.2"/>
<text x="136.0" y="623.5" text-anchor="middle" font-family="Inter, 'Segoe UI', Arial, sans-serif" font-size="13" font-weight="700" fill="#455A64">Hardware Abstraction</text>
<rect x="228.0" y="571.0" width="255.2" height="95.0" rx="10" fill="#E6E0F5" stroke="#5E3D9E" stroke-width="1.4" filter="url(#softShadow)"/>
<text x="355.6" y="623.5" text-anchor="middle" font-family="Inter, 'Segoe UI', Arial, sans-serif" font-size="14.5" font-weight="700" fill="#5E3D9E">GPIO</text>
<rect x="497.2" y="571.0" width="255.2" height="95.0" rx="10" fill="#E6E0F5" stroke="#5E3D9E" stroke-width="1.4" filter="url(#softShadow)"/>
<text x="624.8" y="623.5" text-anchor="middle" font-family="Inter, 'Segoe UI', Arial, sans-serif" font-size="14.5" font-weight="700" fill="#5E3D9E">I2C</text>
<rect x="766.4" y="571.0" width="255.2" height="95.0" rx="10" fill="#E6E0F5" stroke="#5E3D9E" stroke-width="1.4" filter="url(#softShadow)"/>
<text x="894.0" y="623.5" text-anchor="middle" font-family="Inter, 'Segoe UI', Arial, sans-serif" font-size="14.5" font-weight="700" fill="#5E3D9E">UART</text>
<rect x="1035.6" y="571.0" width="255.2" height="95.0" rx="10" fill="#E6E0F5" stroke="#5E3D9E" stroke-width="1.4" filter="url(#softShadow)"/>
<text x="1163.2" y="623.5" text-anchor="middle" font-family="Inter, 'Segoe UI', Arial, sans-serif" font-size="14.5" font-weight="700" fill="#5E3D9E">PWM</text>
<rect x="1304.8" y="571.0" width="255.2" height="95.0" rx="10" fill="#E6E0F5" stroke="#5E3D9E" stroke-width="1.4" filter="url(#softShadow)"/>
<text x="1432.4" y="623.5" text-anchor="middle" font-family="Inter, 'Segoe UI', Arial, sans-serif" font-size="14.5" font-weight="700" fill="#5E3D9E">USB</text>
<line x1="355.6" y1="203.0" x2="355.6" y2="269.0" stroke="#757575" stroke-width="1.4"/>
<polyline points="352.2,261.7 355.6,269.0 359.0,261.7" fill="none" stroke="#757575" stroke-width="1.4" stroke-linecap="round" stroke-linejoin="round"/>
<line x1="624.8" y1="203.0" x2="624.8" y2="269.0" stroke="#757575" stroke-width="1.4"/>
<polyline points="621.4,261.7 624.8,269.0 628.2,261.7" fill="none" stroke="#757575" stroke-width="1.4" stroke-linecap="round" stroke-linejoin="round"/>
<line x1="894.0" y1="203.0" x2="894.0" y2="269.0" stroke="#757575" stroke-width="1.4"/>
<polyline points="890.6,261.7 894.0,269.0 897.4,261.7" fill="none" stroke="#757575" stroke-width="1.4" stroke-linecap="round" stroke-linejoin="round"/>
<line x1="1163.2" y1="203.0" x2="1163.2" y2="269.0" stroke="#757575" stroke-width="1.4"/>
<polyline points="1159.8,261.7 1163.2,269.0 1166.6,261.7" fill="none" stroke="#757575" stroke-width="1.4" stroke-linecap="round" stroke-linejoin="round"/>
<line x1="1432.4" y1="203.0" x2="1432.4" y2="269.0" stroke="#757575" stroke-width="1.4"/>
<polyline points="1429.0,261.7 1432.4,269.0 1435.8,261.7" fill="none" stroke="#757575" stroke-width="1.4" stroke-linecap="round" stroke-linejoin="round"/>
<line x1="355.6" y1="356.0" x2="355.6" y2="422.0" stroke="#757575" stroke-width="1.4"/>
<polyline points="352.2,414.7 355.6,422.0 359.0,414.7" fill="none" stroke="#757575" stroke-width="1.4" stroke-linecap="round" stroke-linejoin="round"/>
<line x1="624.8" y1="356.0" x2="624.8" y2="422.0" stroke="#757575" stroke-width="1.4"/>
<polyline points="621.4,414.7 624.8,422.0 628.2,414.7" fill="none" stroke="#757575" stroke-width="1.4" stroke-linecap="round" stroke-linejoin="round"/>
<line x1="894.0" y1="356.0" x2="894.0" y2="422.0" stroke="#757575" stroke-width="1.4"/>
<polyline points="890.6,414.7 894.0,422.0 897.4,414.7" fill="none" stroke="#757575" stroke-width="1.4" stroke-linecap="round" stroke-linejoin="round"/>
<line x1="1163.2" y1="356.0" x2="1163.2" y2="422.0" stroke="#757575" stroke-width="1.4"/>
<polyline points="1159.8,414.7 1163.2,422.0 1166.6,414.7" fill="none" stroke="#757575" stroke-width="1.4" stroke-linecap="round" stroke-linejoin="round"/>
<line x1="1432.4" y1="356.0" x2="1432.4" y2="422.0" stroke="#757575" stroke-width="1.4"/>
<polyline points="1429.0,414.7 1432.4,422.0 1435.8,414.7" fill="none" stroke="#757575" stroke-width="1.4" stroke-linecap="round" stroke-linejoin="round"/>
<line x1="355.6" y1="509.0" x2="355.6" y2="575.0" stroke="#757575" stroke-width="1.4"/>
<polyline points="352.2,567.7 355.6,575.0 359.0,567.7" fill="none" stroke="#757575" stroke-width="1.4" stroke-linecap="round" stroke-linejoin="round"/>
<line x1="624.8" y1="509.0" x2="624.8" y2="575.0" stroke="#757575" stroke-width="1.4"/>
<polyline points="621.4,567.7 624.8,575.0 628.2,567.7" fill="none" stroke="#757575" stroke-width="1.4" stroke-linecap="round" stroke-linejoin="round"/>
<line x1="894.0" y1="509.0" x2="894.0" y2="575.0" stroke="#757575" stroke-width="1.4"/>
<polyline points="890.6,567.7 894.0,575.0 897.4,567.7" fill="none" stroke="#757575" stroke-width="1.4" stroke-linecap="round" stroke-linejoin="round"/>
<line x1="1163.2" y1="509.0" x2="1163.2" y2="575.0" stroke="#757575" stroke-width="1.4"/>
<polyline points="1159.8,567.7 1163.2,575.0 1166.6,567.7" fill="none" stroke="#757575" stroke-width="1.4" stroke-linecap="round" stroke-linejoin="round"/>
<line x1="1432.4" y1="509.0" x2="1432.4" y2="575.0" stroke="#757575" stroke-width="1.4"/>
<polyline points="1429.0,567.7 1432.4,575.0 1435.8,567.7" fill="none" stroke="#757575" stroke-width="1.4" stroke-linecap="round" stroke-linejoin="round"/>
<rect x="60" y="724.0" width="152.0" height="155.0" rx="8" fill="#ECEFF1" stroke="#90A4AE" stroke-width="1.2"/>
<text x="136.0" y="806.5" text-anchor="middle" font-family="Inter, 'Segoe UI', Arial, sans-serif" font-size="13" font-weight="700" fill="#455A64">Hardware Layer</text>
<rect x="228.0" y="724.0" width="380.0" height="155.0" rx="12" fill="#2E7D32" stroke="#1B5E20" stroke-width="1.6" filter="url(#softShadow)"/>
<circle cx="278.0" cy="801.5" r="32.0" fill="#FFFFFF"/>
<circle cx="278.0" cy="793.9" r="4.8" fill="#FFFFFF"/>
<circle cx="286.3" cy="797.9" r="4.8" fill="#FFFFFF"/>
<circle cx="288.3" cy="806.8" r="4.8" fill="#FFFFFF"/>
<circle cx="282.6" cy="814.0" r="4.8" fill="#FFFFFF"/>
<circle cx="273.4" cy="814.0" r="4.8" fill="#FFFFFF"/>
<circle cx="267.7" cy="806.8" r="4.8" fill="#FFFFFF"/>
<circle cx="269.7" cy="797.9" r="4.8" fill="#FFFFFF"/>
<path d="M 278.0 788.7 q -10 -12 -19 -5 q 5 12 19 9 Z" fill="#FFFFFF"/>
<path d="M 278.0 788.7 q 10 -12 19 -5 q -5 12 -19 9 Z" fill="#FFFFFF"/>
<text x="324.0" y="797.5" font-family="Inter, 'Segoe UI', Arial, sans-serif" font-size="19" font-weight="700" fill="#FFFFFF">Raspberry Pi 4</text>
<text x="324.0" y="816.5" font-family="Inter, 'Segoe UI', Arial, sans-serif" font-size="14" font-weight="400" fill="#E8F5E9">Main Compute Unit</text>
<line x1="608.0" y1="801.5" x2="648.0" y2="801.5" stroke="#757575" stroke-width="1.6"/>
<polyline points="640.7,804.9 648.0,801.5 640.7,798.1" fill="none" stroke="#757575" stroke-width="1.6" stroke-linecap="round" stroke-linejoin="round"/>
<rect x="648.0" y="724.0" width="912.0" height="155.0" rx="12" fill="#66BB6A" stroke="#1B5E20" stroke-width="1.6" filter="url(#softShadow)"/>
<circle cx="696.0" cy="801.5" r="30.0" fill="#FFFFFF"/>
<rect x="684.6" y="790.1" width="22.8" height="22.8" rx="3" fill="none" stroke="#FFFFFF" stroke-width="2.6"/>
<rect x="691.9" y="797.4" width="8.2" height="8.2" fill="#FFFFFF"/>
<line x1="688.7" y1="785.1" x2="688.7" y2="790.1" stroke="#FFFFFF" stroke-width="2.2"/>
<line x1="688.7" y1="812.9" x2="688.7" y2="817.9" stroke="#FFFFFF" stroke-width="2.2"/>
<line x1="679.6" y1="794.2" x2="684.6" y2="794.2" stroke="#FFFFFF" stroke-width="2.2"/>
<line x1="707.4" y1="794.2" x2="712.4" y2="794.2" stroke="#FFFFFF" stroke-width="2.2"/>
<line x1="696.0" y1="785.1" x2="696.0" y2="790.1" stroke="#FFFFFF" stroke-width="2.2"/>
<line x1="696.0" y1="812.9" x2="696.0" y2="817.9" stroke="#FFFFFF" stroke-width="2.2"/>
<line x1="679.6" y1="801.5" x2="684.6" y2="801.5" stroke="#FFFFFF" stroke-width="2.2"/>
<line x1="707.4" y1="801.5" x2="712.4" y2="801.5" stroke="#FFFFFF" stroke-width="2.2"/>
<line x1="703.3" y1="785.1" x2="703.3" y2="790.1" stroke="#FFFFFF" stroke-width="2.2"/>
<line x1="703.3" y1="812.9" x2="703.3" y2="817.9" stroke="#FFFFFF" stroke-width="2.2"/>
<line x1="679.6" y1="808.8" x2="684.6" y2="808.8" stroke="#FFFFFF" stroke-width="2.2"/>
<line x1="707.4" y1="808.8" x2="712.4" y2="808.8" stroke="#FFFFFF" stroke-width="2.2"/>
<text x="740.0" y="797.5" font-family="Inter, 'Segoe UI', Arial, sans-serif" font-size="19" font-weight="700" fill="#FFFFFF">Connected Hardware</text>
<text x="740.0" y="816.5" font-family="Inter, 'Segoe UI', Arial, sans-serif" font-size="13.5" font-weight="400" fill="#E8F5E9">Camera • Sensors • Motor Driver • Bluetooth</text>
<polyline points="355.6,662.0 355.6,710.0 418.0,710.0 418.0,726.0" fill="none" stroke="#757575" stroke-width="1.3"/>
<polyline points="414.6,718.7 418.0,726.0 421.4,718.7" fill="none" stroke="#757575" stroke-width="1.3" stroke-linecap="round" stroke-linejoin="round"/>
<polyline points="624.8,662.0 624.8,710.0 418.0,710.0 418.0,726.0" fill="none" stroke="#757575" stroke-width="1.3"/>
<polyline points="414.6,718.7 418.0,726.0 421.4,718.7" fill="none" stroke="#757575" stroke-width="1.3" stroke-linecap="round" stroke-linejoin="round"/>
<polyline points="894.0,662.0 894.0,710.0 418.0,710.0 418.0,726.0" fill="none" stroke="#757575" stroke-width="1.3"/>
<polyline points="414.6,718.7 418.0,726.0 421.4,718.7" fill="none" stroke="#757575" stroke-width="1.3" stroke-linecap="round" stroke-linejoin="round"/>
<polyline points="1163.2,662.0 1163.2,710.0 418.0,710.0 418.0,726.0" fill="none" stroke="#757575" stroke-width="1.3"/>
<polyline points="414.6,718.7 418.0,726.0 421.4,718.7" fill="none" stroke="#757575" stroke-width="1.3" stroke-linecap="round" stroke-linejoin="round"/>
<polyline points="1432.4,662.0 1432.4,710.0 418.0,710.0 418.0,726.0" fill="none" stroke="#757575" stroke-width="1.3"/>
<polyline points="414.6,718.7 418.0,726.0 421.4,718.7" fill="none" stroke="#757575" stroke-width="1.3" stroke-linecap="round" stroke-linejoin="round"/>
</svg>