<svg xmlns="http://www.w3.org/2000/svg" viewBox="0 0 1600 1000" width="1600" height="1000" font-family="Inter, 'Segoe UI', Arial, sans-serif">

<defs>
  <filter id="softShadow" x="-30%" y="-30%" width="160%" height="160%">
    <feDropShadow dx="0" dy="3" stdDeviation="5" flood-color="rgba(0,0,0,0.15)"/>
  </filter>
</defs>

<rect x="0" y="0" width="1600" height="1000" fill="#FFFFFF"/>
<text x="786" y="46" text-anchor="middle" font-family="Inter, 'Segoe UI', Arial, sans-serif" font-size="28" font-weight="700" fill="#2E7D32">🌱 AgriVision</text>
<text x="800" y="72" text-anchor="middle" font-family="Inter, 'Segoe UI', Arial, sans-serif" font-size="17" font-weight="400" fill="#757575">Robot Navigation Workflow</text>
<rect x="120.0" y="110.0" width="200.0" height="56.0" rx="28.0" fill="#66BB6A" stroke="#1B5E20" stroke-width="1.8" filter="url(#softShadow)"/>
<text x="220.0" y="143.0" text-anchor="middle" font-family="Inter, 'Segoe UI', Arial, sans-serif" font-size="17" font-weight="700" fill="#FFFFFF">START</text>
<line x1="220.0" y1="166.0" x2="220.0" y2="212.0" stroke="#757575" stroke-width="1.6"/>
<polyline points="216.6,204.7 220.0,212.0 223.4,204.7" fill="none" stroke="#757575" stroke-width="1.6" stroke-linecap="round" stroke-linejoin="round"/>
<rect x="90.0" y="212.0" width="260.0" height="74.0" rx="12" fill="#E3F2FD" stroke="#1565C0" stroke-width="1.6" filter="url(#softShadow)"/>
<circle cx="220.0" cy="239.0" r="17.0" fill="#FFFFFF"/>
<polygon points="228.8,239.0 226.1,241.5 226.3,245.3 222.5,245.1 220.0,247.8 217.5,245.1 213.7,245.3 213.9,241.5 211.2,239.0 213.9,236.5 213.7,232.7 217.5,232.9 220.0,230.2 222.5,232.9 226.3,232.7 226.1,236.5" fill="#1565C0"/>
<circle cx="220.0" cy="239.0" r="4.4" fill="#FFFFFF"/>
<text x="220.0" y="272.0" text-anchor="middle" font-family="Inter, 'Segoe UI', Arial, sans-serif" font-size="14.5" font-weight="700" fill="#1565C0">Initialize Sensors</text>
<text x="220.0" y="288.0" text-anchor="middle" font-family="Inter, 'Segoe UI', Arial, sans-serif" font-size="12" font-weight="400" fill="#2B4A6B">&amp; Motors</text>
<line x1="220.0" y1="286.0" x2="220.0" y2="332.0" stroke="#757575" stroke-width="1.6"/>
<polyline points="216.6,324.7 220.0,332.0 223.4,324.7" fill="none" stroke="#757575" stroke-width="1.6" stroke-linecap="round" stroke-linejoin="round"/>
<rect x="90.0" y="332.0" width="260.0" height="74.0" rx="12" fill="#E3F2FD" stroke="#1565C0" stroke-width="1.6" filter="url(#softShadow)"/>
<circle cx="220.0" cy="359.0" r="17.0" fill="#FFFFFF"/>
<path d="M 215.9 360.2 A 4.1 4.1 0 0 1 224.1 360.2" fill="none" stroke="#1565C0" stroke-width="2" opacity="0.5"/>
<path d="M 213.2 361.0 A 6.8 6.8 0 0 1 226.8 361.0" fill="none" stroke="#1565C0" stroke-width="2" opacity="0.65"/>
<path d="M 210.5 361.9 A 9.5 9.5 0 0 1 229.5 361.9" fill="none" stroke="#1565C0" stroke-width="2" opacity="0.8"/>
<circle cx="220.0" cy="369.2" r="2.2" fill="#1565C0"/>
<text x="220.0" y="392.0" text-anchor="middle" font-family="Inter, 'Segoe UI', Arial, sans-serif" font-size="14.5" font-weight="700" fill="#1565C0">Scan Surroundings</text>
<text x="220.0" y="408.0" text-anchor="middle" font-family="Inter, 'Segoe UI', Arial, sans-serif" font-size="12" font-weight="400" fill="#2B4A6B">(Ultrasonic Sensor)</text>
<line x1="220.0" y1="406.0" x2="220.0" y2="452.0" stroke="#757575" stroke-width="1.6"/>
<polyline points="216.6,444.7 220.0,452.0 223.4,444.7" fill="none" stroke="#757575" stroke-width="1.6" stroke-linecap="round" stroke-linejoin="round"/>
<polygon points="220.0,452.0 335.0,512.0 220.0,572.0 105.0,512.0" fill="#FFF3CD" stroke="#E68A00" stroke-width="1.8" filter="url(#softShadow)"/>
<text x="220.0" y="509.0" text-anchor="middle" font-family="Inter, 'Segoe UI', Arial, sans-serif" font-size="14.5" font-weight="700" fill="#7A5B00">Obstacle</text>
<text x="220.0" y="527.0" text-anchor="middle" font-family="Inter, 'Segoe UI', Arial, sans-serif" font-size="14.5" font-weight="700" fill="#7A5B00">Detected?</text>
<line x1="335.0" y1="512.0" x2="381.0" y2="512.0" stroke="#757575" stroke-width="1.6"/>
<polyline points="373.7,515.4 381.0,512.0 373.7,508.6" fill="none" stroke="#757575" stroke-width="1.6" stroke-linecap="round" stroke-linejoin="round"/>
<rect x="342.0" y="501.0" width="32" height="20" rx="4" fill="#FFFFFF"/>
<text x="358.0" y="516.0" text-anchor="middle" font-family="Inter, 'Segoe UI', Arial, sans-serif" font-size="12.5" font-weight="700" fill="#757575">Yes</text>
<rect x="381.0" y="479.0" width="220.0" height="66.0" rx="12" fill="#E3F2FD" stroke="#1565C0" stroke-width="1.6" filter="url(#softShadow)"/>
<circle cx="491.0" cy="502.0" r="14.0" fill="#FFFFFF"/>
<path d="M 491.0 509.8 C 482.9 502.0 486.0 494.2 491.0 494.2 C 496.0 494.2 499.1 502.0 491.0 509.8 Z" fill="#1565C0"/>
<circle cx="491.0" cy="500.3" r="2.5" fill="#FFFFFF"/>
<text x="491.0" y="532.0" text-anchor="middle" font-family="Inter, 'Segoe UI', Arial, sans-serif" font-size="13" font-weight="700" fill="#1565C0">Determine Obstacle</text>
<text x="491.0" y="548.0" text-anchor="middle" font-family="Inter, 'Segoe UI', Arial, sans-serif" font-size="11" font-weight="400" fill="#2B4A6B">Direction</text>
<line x1="601.0" y1="512.0" x2="647.0" y2="512.0" stroke="#757575" stroke-width="1.6"/>
<polyline points="639.7,515.4 647.0,512.0 639.7,508.6" fill="none" stroke="#757575" stroke-width="1.6" stroke-linecap="round" stroke-linejoin="round"/>
<rect x="647.0" y="479.0" width="220.0" height="66.0" rx="12" fill="#E3F2FD" stroke="#1565C0" stroke-width="1.6" filter="url(#softShadow)"/>
<circle cx="757.0" cy="502.0" r="14.0" fill="#FFFFFF"/>
<path d="M 757.0 509.8 C 748.9 502.0 752.0 494.2 757.0 494.2 C 762.0 494.2 765.1 502.0 757.0 509.8 Z" fill="#1565C0"/>
<circle cx="757.0" cy="500.3" r="2.5" fill="#FFFFFF"/>
<text x="757.0" y="532.0" text-anchor="middle" font-family="Inter, 'Segoe UI', Arial, sans-serif" font-size="13" font-weight="700" fill="#1565C0">Plan Avoidance</text>
<text x="757.0" y="548.0" text-anchor="middle" font-family="Inter, 'Segoe UI', Arial, sans-serif" font-size="11" font-weight="400" fill="#2B4A6B">Path</text>
<line x1="867.0" y1="512.0" x2="913.0" y2="512.0" stroke="#757575" stroke-width="1.6"/>
<polyline points="905.7,515.4 913.0,512.0 905.7,508.6" fill="none" stroke="#757575" stroke-width="1.6" stroke-linecap="round" stroke-linejoin="round"/>
<rect x="913.0" y="479.0" width="220.0" height="66.0" rx="12" fill="#66BB6A" stroke="#1B5E20" stroke-width="1.6" filter="url(#softShadow)"/>
<circle cx="1023.0" cy="502.0" r="14.0" fill="#FFFFFF"/>
<rect x="1018.0" y="497.0" width="10.1" height="10.1" rx="6" fill="none" stroke="#FFFFFF" stroke-width="2.4"/>
<circle cx="1020.8" cy="502.0" r="2.6" fill="#FFFFFF"/>
<circle cx="1025.2" cy="502.0" r="2.6" fill="#FFFFFF"/>
<line x1="1023.0" y1="497.0" x2="1023.0" y2="491.0" stroke="#FFFFFF" stroke-width="2"/>
<circle cx="1023.0" cy="489.0" r="2" fill="#FFFFFF"/>
<text x="1023.0" y="532.0" text-anchor="middle" font-family="Inter, 'Segoe UI', Arial, sans-serif" font-size="13" font-weight="700" fill="#FFFFFF">Execute</text>
<text x="1023.0" y="548.0" text-anchor="middle" font-family="Inter, 'Segoe UI', Arial, sans-serif" font-size="11" font-weight="400" fill="#E8F5E9">Movement</text>
<polyline points="1133.0,512.0 1500.0,512.0 1500.0,369.0 350.0,369.0" fill="none" stroke="#757575" stroke-width="1.5"/>
<polyline points="357.3,365.6 350.0,369.0 357.3,372.4" fill="none" stroke="#757575" stroke-width="1.5" stroke-linecap="round" stroke-linejoin="round"/>
<line x1="220.0" y1="572.0" x2="220.0" y2="618.0" stroke="#757575" stroke-width="1.6"/>
<polyline points="216.6,610.7 220.0,618.0 223.4,610.7" fill="none" stroke="#757575" stroke-width="1.6" stroke-linecap="round" stroke-linejoin="round"/>
<rect x="204.0" y="584.0" width="32" height="20" rx="4" fill="#FFFFFF"/>
<text x="220.0" y="599.0" text-anchor="middle" font-family="Inter, 'Segoe UI', Arial, sans-serif" font-size="12.5" font-weight="700" fill="#757575">No</text>
<rect x="90.0" y="618.0" width="260.0" height="74.0" rx="12" fill="#E3F2FD" stroke="#1565C0" stroke-width="1.6" filter="url(#softShadow)"/>
<circle cx="220.0" cy="651.0" r="16.0" fill="#FFFFFF"/>
<rect x="214.2" y="645.2" width="11.5" height="11.5" rx="6" fill="none" stroke="#1565C0" stroke-width="2.4"/>
<circle cx="217.5" cy="651.0" r="2.6" fill="#1565C0"/>
<circle cx="222.5" cy="651.0" r="2.6" fill="#1565C0"/>
<line x1="220.0" y1="645.2" x2="220.0" y2="639.2" stroke="#1565C0" stroke-width="2"/>
<circle cx="220.0" cy="637.2" r="2" fill="#1565C0"/>
<text x="220.0" y="685.0" text-anchor="middle" font-family="Inter, 'Segoe UI', Arial, sans-serif" font-size="15" font-weight="700" fill="#1565C0">Move Forward</text>
<line x1="220.0" y1="692.0" x2="220.0" y2="738.0" stroke="#757575" stroke-width="1.6"/>
<polyline points="216.6,730.7 220.0,738.0 223.4,730.7" fill="none" stroke="#757575" stroke-width="1.6" stroke-linecap="round" stroke-linejoin="round"/>
<rect x="70.0" y="738.0" width="300.0" height="74.0" rx="12" fill="#66BB6A" stroke="#1B5E20" stroke-width="1.6" filter="url(#softShadow)"/>
<circle cx="220.0" cy="765.0" r="16.0" fill="#FFFFFF"/>
<rect x="211.0" y="760.9" width="17.9" height="12.2" rx="4" fill="none" stroke="#FFFFFF" stroke-width="2.6"/>
<rect x="216.8" y="754.9" width="6.4" height="6" rx="1.5" fill="#FFFFFF"/>
<circle cx="220.0" cy="767.0" r="3.8" fill="none" stroke="#FFFFFF" stroke-width="2.4"/>
<text x="220.0" y="797.0" text-anchor="middle" font-family="Inter, 'Segoe UI', Arial, sans-serif" font-size="14.5" font-weight="700" fill="#FFFFFF">Capture Image &amp;</text>
<text x="220.0" y="813.0" text-anchor="middle" font-family="Inter, 'Segoe UI', Arial, sans-serif" font-size="12" font-weight="400" fill="#E8F5E9">Detect Plant Disease</text>
<line x1="370.0" y1="775.0" x2="416.0" y2="775.0" stroke="#757575" stroke-width="1.6"/>
<polyline points="408.7,778.4 416.0,775.0 408.7,771.6" fill="none" stroke="#757575" stroke-width="1.6" stroke-linecap="round" stroke-linejoin="round"/>
<rect x="416.0" y="738.0" width="220.0" height="74.0" rx="12" fill="#E3F2FD" stroke="#1565C0" stroke-width="1.6" filter="url(#softShadow)"/>
<circle cx="526.0" cy="765.0" r="15.0" fill="#FFFFFF"/>
<path d="M 526.0 756.9 L 526.0 773.1 L 531.4 768.8 L 520.6 761.2 M 526.0 756.9 L 531.4 761.2 L 520.6 768.8 L 526.0 773.1" fill="none" stroke="#1565C0" stroke-width="2.4" stroke-linejoin="round" stroke-linecap="round"/>
<text x="526.0" y="796.0" text-anchor="middle" font-family="Inter, 'Segoe UI', Arial, sans-serif" font-size="13.5" font-weight="700" fill="#1565C0">Send Result via</text>
<text x="526.0" y="812.0" text-anchor="middle" font-family="Inter, 'Segoe UI', Arial, sans-serif" font-size="11.5" font-weight="400" fill="#2B4A6B">Bluetooth</text>
<line x1="636.0" y1="775.0" x2="682.0" y2="775.0" stroke="#757575" stroke-width="1.6"/>
<polyline points="674.7,778.4 682.0,775.0 674.7,771.6" fill="none" stroke="#757575" stroke-width="1.6" stroke-linecap="round" stroke-linejoin="round"/>
<rect x="682.0" y="738.0" width="220.0" height="74.0" rx="12" fill="#E3F2FD" stroke="#1565C0" stroke-width="1.6" filter="url(#softShadow)"/>
<circle cx="792.0" cy="771.0" r="15.0" fill="#FFFFFF"/>
<rect x="786.9" y="764.4" width="10.2" height="13.2" rx="2" fill="none" stroke="#1565C0" stroke-width="2.2"/>
<line x1="788.7" y1="768.4" x2="795.3" y2="768.4" stroke="#1565C0" stroke-width="1.8"/>
<line x1="788.7" y1="771.3" x2="795.3" y2="771.3" stroke="#1565C0" stroke-width="1.8"/>
<line x1="788.7" y1="774.2" x2="795.3" y2="774.2" stroke="#1565C0" stroke-width="1.8"/>
<text x="792.0" y="804.0" text-anchor="middle" font-family="Inter, 'Segoe UI', Arial, sans-serif" font-size="13.5" font-weight="700" fill="#1565C0">Update Logs</text>
<polyline points="902.0,775.0 1500.0,775.0 1500.0,351.0" fill="none" stroke="#757575" stroke-width="1.5"/>
<polyline points="1503.4,358.3 1500.0,351.0 1496.6,358.3" fill="none" stroke="#757575" stroke-width="1.5" stroke-linecap="round" stroke-linejoin="round"/>
</svg>