<svg xmlns="http://www.w3.org/2000/svg" viewBox="0 0 1600 1000" width="1600" height="1000" font-family="Inter, 'Segoe UI', Arial, sans-serif">

<defs>
  <filter id="softShadow" x="-30%" y="-30%" width="160%" height="160%">
    <feDropShadow dx="0" dy="3" stdDeviation="5" flood-color="rgba(0,0,0,0.15)"/>
  </filter>
</defs>

<rect x="0" y="0" width="1600" height="1000" fill="#FFFFFF"/>
<text x="786" y="46" text-anchor="middle" font-family="Inter, 'Segoe UI', Arial, sans-serif" font-size="28" font-weight="700" fill="#2E7D32">🌱 AgriVision</text>
<text x="800" y="72" text-anchor="middle" font-family="Inter, 'Segoe UI', Arial, sans-serif" font-size="17" font-weight="400" fill="#757575">Project Workflow — End-to-End Process</text>
<rect x="91.0" y="130.0" width="250.0" height="140.0" rx="12" fill="#66BB6A" stroke="#1B5E20" stroke-width="1.6" filter="url(#softShadow)"/>
<circle cx="216.0" cy="190.0" r="21.0" fill="#FFFFFF"/>
<path d="M 216.0 180.8 A 9.2 9.2 0 1 1 215.9 180.8" fill="none" stroke="#FFFFFF" stroke-width="2.4" stroke-linecap="round"/>
<line x1="216.0" y1="178.0" x2="216.0" y2="188.2" stroke="#FFFFFF" stroke-width="2.4" stroke-linecap="round"/>
<text x="216.0" y="227.0" text-anchor="middle" font-family="Inter, 'Segoe UI', Arial, sans-serif" font-size="15.5" font-weight="700" fill="#FFFFFF">Start / Power</text>
<text x="216.0" y="243.0" text-anchor="middle" font-family="Inter, 'Segoe UI', Arial, sans-serif" font-size="12.5" font-weight="400" fill="#E8F5E9">On</text>
<line x1="341.0" y1="200.0" x2="383.0" y2="200.0" stroke="#757575" stroke-width="1.6"/>
<polyline points="375.7,203.4 383.0,200.0 375.7,196.6" fill="none" stroke="#757575" stroke-width="1.6" stroke-linecap="round" stroke-linejoin="round"/>
<rect x="383.0" y="130.0" width="250.0" height="140.0" rx="12" fill="#E3F2FD" stroke="#1565C0" stroke-width="1.6" filter="url(#softShadow)"/>
<circle cx="508.0" cy="190.0" r="21.0" fill="#FFFFFF"/>
<polygon points="518.9,190.0 515.6,193.1 515.7,197.7 511.1,197.6 508.0,200.9 504.9,197.6 500.3,197.7 500.4,193.1 497.1,190.0 500.4,186.9 500.3,182.3 504.9,182.4 508.0,179.1 511.1,182.4 515.7,182.3 515.6,186.9" fill="#1565C0"/>
<circle cx="508.0" cy="190.0" r="5.5" fill="#FFFFFF"/>
<text x="508.0" y="227.0" text-anchor="middle" font-family="Inter, 'Segoe UI', Arial, sans-serif" font-size="15.5" font-weight="700" fill="#1565C0">Initialize System</text>
<text x="508.0" y="243.0" text-anchor="middle" font-family="Inter, 'Segoe UI', Arial, sans-serif" font-size="12.5" font-weight="400" fill="#2B4A6B">(Modules &amp; Sensors)</text>
<line x1="633.0" y1="200.0" x2="675.0" y2="200.0" stroke="#757575" stroke-width="1.6"/>
<polyline points="667.7,203.4 675.0,200.0 667.7,196.6" fill="none" stroke="#757575" stroke-width="1.6" stroke-linecap="round" stroke-linejoin="round"/>
<rect x="675.0" y="130.0" width="250.0" height="140.0" rx="12" fill="#FFF3CD" stroke="#E68A00" stroke-width="1.6" filter="url(#softShadow)"/>
<circle cx="800.0" cy="190.0" r="21.0" fill="#FFFFFF"/>
<rect x="792.4" y="182.4" width="15.1" height="15.1" rx="6" fill="none" stroke="#E68A00" stroke-width="2.4"/>
<circle cx="796.7" cy="190.0" r="2.6" fill="#E68A00"/>
<circle cx="803.3" cy="190.0" r="2.6" fill="#E68A00"/>
<line x1="800.0" y1="182.4" x2="800.0" y2="176.4" stroke="#E68A00" stroke-width="2"/>
<circle cx="800.0" cy="174.4" r="2" fill="#E68A00"/>
<text x="800.0" y="227.0" text-anchor="middle" font-family="Inter, 'Segoe UI', Arial, sans-serif" font-size="15.5" font-weight="700" fill="#7A5B00">Navigate to</text>
<text x="800.0" y="243.0" text-anchor="middle" font-family="Inter, 'Segoe UI', Arial, sans-serif" font-size="12.5" font-weight="400" fill="#8A6D00">Next Position</text>
<line x1="925.0" y1="200.0" x2="967.0" y2="200.0" stroke="#757575" stroke-width="1.6"/>
<polyline points="959.7,203.4 967.0,200.0 959.7,196.6" fill="none" stroke="#757575" stroke-width="1.6" stroke-linecap="round" stroke-linejoin="round"/>
<rect x="967.0" y="130.0" width="250.0" height="140.0" rx="12" fill="#66BB6A" stroke="#1B5E20" stroke-width="1.6" filter="url(#softShadow)"/>
<circle cx="1092.0" cy="190.0" r="21.0" fill="#FFFFFF"/>
<rect x="1080.2" y="184.0" width="23.5" height="16.0" rx="4" fill="none" stroke="#FFFFFF" stroke-width="2.6"/>
<rect x="1087.8" y="178.0" width="8.4" height="6" rx="1.5" fill="#FFFFFF"/>
<circle cx="1092.0" cy="192.0" r="5.0" fill="none" stroke="#FFFFFF" stroke-width="2.4"/>
<text x="1092.0" y="227.0" text-anchor="middle" font-family="Inter, 'Segoe UI', Arial, sans-serif" font-size="15.5" font-weight="700" fill="#FFFFFF">Capture Image</text>
<text x="1092.0" y="243.0" text-anchor="middle" font-family="Inter, 'Segoe UI', Arial, sans-serif" font-size="12.5" font-weight="400" fill="#E8F5E9">(Leaf)</text>
<line x1="1217.0" y1="200.0" x2="1259.0" y2="200.0" stroke="#757575" stroke-width="1.6"/>
<polyline points="1251.7,203.4 1259.0,200.0 1251.7,196.6" fill="none" stroke="#757575" stroke-width="1.6" stroke-linecap="round" stroke-linejoin="round"/>
<rect x="1259.0" y="130.0" width="250.0" height="140.0" rx="12" fill="#E3F2FD" stroke="#1565C0" stroke-width="1.6" filter="url(#softShadow)"/>
<circle cx="1384.0" cy="190.0" r="21.0" fill="#FFFFFF"/>
<rect x="1372.2" y="181.2" width="23.5" height="17.6" rx="3" fill="none" stroke="#1565C0" stroke-width="2.4"/>
<circle cx="1377.9" cy="186.5" r="2.3" fill="#1565C0"/>
<path d="M 1374.2 195.8 L 1382.1 189.1 L 1387.5 193.9 L 1392.2 188.2 L 1393.8 195.8 Z" fill="#1565C0"/>
<text x="1384.0" y="227.0" text-anchor="middle" font-family="Inter, 'Segoe UI', Arial, sans-serif" font-size="15.5" font-weight="700" fill="#1565C0">Preprocess Image</text>
<text x="1384.0" y="243.0" text-anchor="middle" font-family="Inter, 'Segoe UI', Arial, sans-serif" font-size="12.5" font-weight="400" fill="#2B4A6B">(OpenCV)</text>
<rect x="91.0" y="440.0" width="250.0" height="140.0" rx="12" fill="#E3F2FD" stroke="#1565C0" stroke-width="1.6" filter="url(#softShadow)"/>
<circle cx="216.0" cy="500.0" r="21.0" fill="#FFFFFF"/>
<path d="M 216.0 511.8 C 203.9 500.0 208.4 488.2 216.0 488.2 C 223.6 488.2 228.1 500.0 216.0 511.8 Z" fill="#1565C0"/>
<circle cx="216.0" cy="497.5" r="3.8" fill="#FFFFFF"/>
<text x="216.0" y="537.0" text-anchor="middle" font-family="Inter, 'Segoe UI', Arial, sans-serif" font-size="15.5" font-weight="700" fill="#1565C0">Check Next</text>
<text x="216.0" y="553.0" text-anchor="middle" font-family="Inter, 'Segoe UI', Arial, sans-serif" font-size="12.5" font-weight="400" fill="#2B4A6B">Position</text>
<line x1="383.0" y1="510.0" x2="341.0" y2="510.0" stroke="#757575" stroke-width="1.6"/>
<polyline points="348.3,506.6 341.0,510.0 348.3,513.4" fill="none" stroke="#757575" stroke-width="1.6" stroke-linecap="round" stroke-linejoin="round"/>
<rect x="383.0" y="440.0" width="250.0" height="140.0" rx="12" fill="#E6E0F5" stroke="#5E3D9E" stroke-width="1.6" filter="url(#softShadow)"/>
<circle cx="508.0" cy="500.0" r="21.0" fill="#FFFFFF"/>
<ellipse cx="508.0" cy="491.6" rx="8.4" ry="3.4" fill="none" stroke="#5E3D9E" stroke-width="2.2"/>
<line x1="499.6" y1="491.6" x2="499.6" y2="508.4" stroke="#5E3D9E" stroke-width="2.2"/>
<line x1="516.4" y1="491.6" x2="516.4" y2="508.4" stroke="#5E3D9E" stroke-width="2.2"/>
<path d="M 499.6 508.4 A 8.4 3.4 0 0 0 516.4 508.4" fill="none" stroke="#5E3D9E" stroke-width="2.2"/>
<text x="508.0" y="537.0" text-anchor="middle" font-family="Inter, 'Segoe UI', Arial, sans-serif" font-size="15.5" font-weight="700" fill="#5E3D9E">Update Logs &amp;</text>
<text x="508.0" y="553.0" text-anchor="middle" font-family="Inter, 'Segoe UI', Arial, sans-serif" font-size="12.5" font-weight="400" fill="#5E3D9E">Data Storage</text>
<line x1="675.0" y1="510.0" x2="633.0" y2="510.0" stroke="#757575" stroke-width="1.6"/>
<polyline points="640.3,506.6 633.0,510.0 640.3,513.4" fill="none" stroke="#757575" stroke-width="1.6" stroke-linecap="round" stroke-linejoin="round"/>
<rect x="675.0" y="440.0" width="250.0" height="140.0" rx="12" fill="#FFF3CD" stroke="#E68A00" stroke-width="1.6" filter="url(#softShadow)"/>
<circle cx="800.0" cy="500.0" r="21.0" fill="#FFFFFF"/>
<path d="M 800.0 488.7 L 800.0 511.3 L 807.6 505.3 L 792.4 494.7 M 800.0 488.7 L 807.6 494.7 L 792.4 505.3 L 800.0 511.3" fill="none" stroke="#E68A00" stroke-width="2.4" stroke-linejoin="round" stroke-linecap="round"/>
<text x="800.0" y="537.0" text-anchor="middle" font-family="Inter, 'Segoe UI', Arial, sans-serif" font-size="15.5" font-weight="700" fill="#7A5B00">Send Result via</text>
<text x="800.0" y="553.0" text-anchor="middle" font-family="Inter, 'Segoe UI', Arial, sans-serif" font-size="12.5" font-weight="400" fill="#8A6D00">Bluetooth</text>
<line x1="967.0" y1="510.0" x2="925.0" y2="510.0" stroke="#757575" stroke-width="1.6"/>
<polyline points="932.3,506.6 925.0,510.0 932.3,513.4" fill="none" stroke="#757575" stroke-width="1.6" stroke-linecap="round" stroke-linejoin="round"/>
<rect x="967.0" y="440.0" width="250.0" height="140.0" rx="12" fill="#FB8C00" stroke="#E65100" stroke-width="1.6" filter="url(#softShadow)"/>
<circle cx="1092.0" cy="500.0" r="21.0" fill="#FFFFFF"/>
<rect x="1084.9" y="490.8" width="14.3" height="18.5" rx="2" fill="none" stroke="#FFFFFF" stroke-width="2.2"/>
<line x1="1087.4" y1="496.3" x2="1096.6" y2="496.3" stroke="#FFFFFF" stroke-width="1.8"/>
<line x1="1087.4" y1="500.4" x2="1096.6" y2="500.4" stroke="#FFFFFF" stroke-width="1.8"/>
<line x1="1087.4" y1="504.4" x2="1096.6" y2="504.4" stroke="#FFFFFF" stroke-width="1.8"/>
<text x="1092.0" y="537.0" text-anchor="middle" font-family="Inter, 'Segoe UI', Arial, sans-serif" font-size="15.5" font-weight="700" fill="#FFFFFF">Display / Store</text>
<text x="1092.0" y="553.0" text-anchor="middle" font-family="Inter, 'Segoe UI', Arial, sans-serif" font-size="12.5" font-weight="400" fill="#FFF3E0">Result</text>
<line x1="1259.0" y1="510.0" x2="1217.0" y2="510.0" stroke="#757575" stroke-width="1.6"/>
<polyline points="1224.3,506.6 1217.0,510.0 1224.3,513.4" fill="none" stroke="#757575" stroke-width="1.6" stroke-linecap="round" stroke-linejoin="round"/>
<rect x="1259.0" y="440.0" width="250.0" height="140.0" rx="12" fill="#E6E0F5" stroke="#5E3D9E" stroke-width="1.6" filter="url(#softShadow)"/>
<circle cx="1384.0" cy="500.0" r="21.0" fill="#FFFFFF"/>
<path d="M 1373.9 500.0 q -6 -10.1 5.0 -11.1 q 5.0 -5.0 10.1 0 q 5.0 -5.0 10.1 0 q 11.1 1.0 5.0 11.1 q 6.0 5.0 0 11.1 q 1.0 7.1 -8.1 7.1 q -3.0 3.5 -9.1 0 q -8.1 0 -7.1 -7.1 q -6.0 -5.0 0 -11.1 Z" fill="none" stroke="#5E3D9E" stroke-width="2.2" stroke-linejoin="round"/>
<line x1="1384.0" y1="490.9" x2="1384.0" y2="509.1" stroke="#5E3D9E" stroke-width="1.6"/>
<text x="1384.0" y="537.0" text-anchor="middle" font-family="Inter, 'Segoe UI', Arial, sans-serif" font-size="15.5" font-weight="700" fill="#5E3D9E">Disease Detection</text>
<text x="1384.0" y="553.0" text-anchor="middle" font-family="Inter, 'Segoe UI', Arial, sans-serif" font-size="12.5" font-weight="400" fill="#5E3D9E">(TensorFlow Model)</text>
<line x1="1384.0" y1="270.0" x2="1384.0" y2="440.0" stroke="#757575" stroke-width="1.6"/>
<polyline points="1380.6,432.7 1384.0,440.0 1387.4,432.7" fill="none" stroke="#757575" stroke-width="1.6" stroke-linecap="round" stroke-linejoin="round"/>
<line x1="216.0" y1="580.0" x2="216.0" y2="655.0" stroke="#757575" stroke-width="1.6"/>
<polyline points="212.6,647.7 216.0,655.0 219.4,647.7" fill="none" stroke="#757575" stroke-width="1.6" stroke-linecap="round" stroke-linejoin="round"/>
<polygon points="216.0,655.0 331.0,720 216.0,785.0 101.0,720" fill="#FFF3CD" stroke="#E68A00" stroke-width="1.8" filter="url(#softShadow)"/>
<text x="216.0" y="717.0" text-anchor="middle" font-family="Inter, 'Segoe UI', Arial, sans-serif" font-size="14" font-weight="700" fill="#7A5B00">More Areas</text>
<text x="216.0" y="735.0" text-anchor="middle" font-family="Inter, 'Segoe UI', Arial, sans-serif" font-size="14" font-weight="700" fill="#7A5B00">to Scan?</text>
<polyline points="101.0,720.0 46.0,720.0 46.0,200.0 675.0,200.0" fill="none" stroke="#757575" stroke-width="1.6"/>
<polyline points="667.7,203.4 675.0,200.0 667.7,196.6" fill="none" stroke="#757575" stroke-width="1.6" stroke-linecap="round" stroke-linejoin="round"/>
<rect x="30.0" y="691.0" width="32" height="20" rx="4" fill="#FFFFFF"/>
<text x="46.0" y="706.0" text-anchor="middle" font-family="Inter, 'Segoe UI', Arial, sans-serif" font-size="12.5" font-weight="700" fill="#757575">Yes</text>
<line x1="331.0" y1="720.0" x2="421.0" y2="720.0" stroke="#757575" stroke-width="1.6"/>
<polyline points="413.7,723.4 421.0,720.0 413.7,716.6" fill="none" stroke="#757575" stroke-width="1.6" stroke-linecap="round" stroke-linejoin="round"/>
<rect x="360.0" y="709.0" width="32" height="20" rx="4" fill="#FFFFFF"/>
<text x="376.0" y="724.0" text-anchor="middle" font-family="Inter, 'Segoe UI', Arial, sans-serif" font-size="12.5" font-weight="700" fill="#757575">No</text>
<rect x="421.0" y="690.0" width="180.0" height="60.0" rx="30.0" fill="#FFCDD2" stroke="#B71C1C" stroke-width="1.8" filter="url(#softShadow)"/>
<text x="511.0" y="725.0" text-anchor="middle" font-family="Inter, 'Segoe UI', Arial, sans-serif" font-size="16" font-weight="700" fill="#B71C1C">End / Stop</text>
</svg>