<svg xmlns="http://www.w3.org/2000/svg" viewBox="0 0 1600 1000" width="1600" height="1000" font-family="Poppins, 'Segoe UI', Arial, sans-serif">

<defs>
  <filter id="softShadow" x="-20%" y="-20%" width="140%" height="140%">
    <feDropShadow dx="0" dy="3" stdDeviation="4" flood-color="rgba(0,0,0,0.08)"/>
  </filter>
  <marker id="arrowHead" markerWidth="10" markerHeight="10" refX="8" refY="5" orient="auto" markerUnits="userSpaceOnUse">
    <path d="M0,0 L10,5 L0,10 Z" fill="#424242"/>
  </marker>
</defs>

<rect x="0" y="0" width="1600" height="1000" fill="#FFFFFF"/>
<rect x="495.0" y="45.0" width="34" height="34" rx="12" fill="#2E7D32"/>
<path d="M 501.8 72.2 Q 501.8 51.8 522.2 51.8 Q 522.2 72.2 501.8 72.2 Z" fill="white"/>
<line x1="502.8" y1="71.2" x2="519.1" y2="54.9" stroke="#2E7D32" stroke-width="2"/>
<text x="540" y="76" font-family="Poppins, 'Segoe UI', Arial, sans-serif" font-size="48" font-weight="700" fill="#2E7D32">AgriVision</text>
<text x="630" y="118" text-anchor="middle" font-family="Poppins, 'Segoe UI', Arial, sans-serif" font-size="24" font-weight="500" fill="#616161">System Architecture</text>
<rect x="470" y="158" width="320" height="90" rx="16" fill="#66BB6A" stroke="#1B5E20" stroke-width="1.5" filter="url(#softShadow)"/>
<rect x="490.0" y="177.0" width="52" height="52" rx="12" fill="#2E7D32"/>
<rect x="499.9" y="195.1" width="32.2" height="21.8" rx="4" fill="white"/>
<rect x="509.8" y="189.1" width="12.5" height="7" rx="2" fill="white"/>
<circle cx="516.0" cy="205.0" r="7.3" fill="#2E7D32"/>
<circle cx="516.0" cy="205.0" r="3.6" fill="white"/>
<text x="560" y="197.0" font-family="Poppins, 'Segoe UI', Arial, sans-serif" font-size="18" font-weight="700" fill="#FFFFFF">Raspberry Pi</text>
<text x="560" y="221.0" font-family="Poppins, 'Segoe UI', Arial, sans-serif" font-size="14" font-weight="400" fill="#FFFFFF">Camera Module</text>
<line x1="630" y1="248" x2="630" y2="288" stroke="#424242" stroke-width="2.4" marker-end="url(#arrowHead)"/>
<rect x="440" y="288" width="380" height="108" rx="16" fill="#2E7D32" stroke="#1B5E20" stroke-width="1.5" filter="url(#softShadow)"/>
<rect x="460.0" y="312.0" width="60" height="60" rx="12" fill="#0B4814"/>
<circle cx="490.0" cy="335.2" r="5.4" fill="white"/>
<circle cx="498.4" cy="339.3" r="5.4" fill="white"/>
<circle cx="500.5" cy="348.4" r="5.4" fill="white"/>
<circle cx="494.7" cy="355.7" r="5.4" fill="white"/>
<circle cx="485.3" cy="355.7" r="5.4" fill="white"/>
<circle cx="479.5" cy="348.4" r="5.4" fill="white"/>
<circle cx="481.6" cy="339.3" r="5.4" fill="white"/>
<path d="M 490.0 328.8 q -12 -14 -22 -6 q 6 14 22 10 Z" fill="white"/>
<path d="M 490.0 328.8 q 12 -14 22 -6 q -6 14 -22 10 Z" fill="white"/>
<text x="538" y="336.0" font-family="Poppins, 'Segoe UI', Arial, sans-serif" font-size="18" font-weight="700" fill="#FFFFFF">Raspberry Pi 4</text>
<text x="538" y="360.0" font-family="Poppins, 'Segoe UI', Arial, sans-serif" font-size="14" font-weight="400" fill="#FFFFFF">(Main Controller)</text>
<path d="M 630.0 396.0 L 630.0 422.0 L 190.0 422.0 L 190.0 440.0" fill="none" stroke="#424242" stroke-width="2.4" marker-end="url(#arrowHead)"/>
<line x1="630.0" y1="396" x2="630.0" y2="440" stroke="#424242" stroke-width="2.4" marker-end="url(#arrowHead)"/>
<path d="M 630.0 396.0 L 630.0 422.0 L 1070.0 422.0 L 1070.0 440.0" fill="none" stroke="#424242" stroke-width="2.4" marker-end="url(#arrowHead)"/>
<rect x="40" y="440" width="300" height="90" rx="16" fill="#66BB6A" stroke="#1B5E20" stroke-width="1.5" filter="url(#softShadow)"/>
<rect x="60.0" y="459.0" width="52" height="52" rx="12" fill="#2E7D32"/>
<circle cx="76.4" cy="481.7" r="7.8" fill="none" stroke="white" stroke-width="3.4"/>
<circle cx="95.6" cy="481.7" r="7.8" fill="none" stroke="white" stroke-width="3.4"/>
<circle cx="86.0" cy="492.1" r="7.8" fill="none" stroke="white" stroke-width="3.4"/>
<text x="130" y="479.0" font-family="Poppins, 'Segoe UI', Arial, sans-serif" font-size="18" font-weight="700" fill="#FFFFFF">OpenCV</text>
<text x="130" y="503.0" font-family="Poppins, 'Segoe UI', Arial, sans-serif" font-size="14" font-weight="400" fill="#FFFFFF">Image Processing</text>
<line x1="190.0" y1="530" x2="190.0" y2="560" stroke="#424242" stroke-width="2.4" marker-end="url(#arrowHead)"/>
<rect x="40" y="560" width="300" height="90" rx="16" fill="#66BB6A" stroke="#1B5E20" stroke-width="1.5" filter="url(#softShadow)"/>
<rect x="60.0" y="579.0" width="52" height="52" rx="12" fill="#FB8C00"/>
<rect x="78.2" y="591.5" width="15.6" height="8.3" fill="white"/>
<rect x="82.4" y="591.5" width="7.3" height="27.0" fill="white"/>
<text x="130" y="599.0" font-family="Poppins, 'Segoe UI', Arial, sans-serif" font-size="18" font-weight="700" fill="#FFFFFF">TensorFlow</text>
<text x="130" y="623.0" font-family="Poppins, 'Segoe UI', Arial, sans-serif" font-size="14" font-weight="400" fill="#FFFFFF">Disease Detection</text>
<line x1="190.0" y1="650" x2="190.0" y2="680" stroke="#424242" stroke-width="2.4" marker-end="url(#arrowHead)"/>
<rect x="40" y="680" width="300" height="90" rx="16" fill="#A5D6A7" stroke="#1B5E20" stroke-width="1.5" filter="url(#softShadow)"/>
<rect x="60.0" y="699.0" width="52" height="52" rx="12" fill="#81C784"/>
<path d="M 70.4 740.6 Q 70.4 709.4 101.6 709.4 Q 101.6 740.6 70.4 740.6 Z" fill="white"/>
<line x1="72.0" y1="739.0" x2="96.9" y2="714.1" stroke="#81C784" stroke-width="2"/>
<text x="130" y="719.0" font-family="Poppins, 'Segoe UI', Arial, sans-serif" font-size="18" font-weight="700" fill="#1B5E20">Disease Prediction</text>
<text x="130" y="743.0" font-family="Poppins, 'Segoe UI', Arial, sans-serif" font-size="14" font-weight="400" fill="#616161">(Result)</text>
<rect x="480" y="440" width="300" height="90" rx="16" fill="#66BB6A" stroke="#1B5E20" stroke-width="1.5" filter="url(#softShadow)"/>
<rect x="500.0" y="459.0" width="52" height="52" rx="12" fill="#2E7D32"/>
<rect x="515.1" y="474.1" width="21.8" height="21.8" rx="3" fill="none" stroke="white" stroke-width="3"/>
<rect x="521.2" y="480.2" width="9.6" height="9.6" fill="white"/>
<line x1="519.0" y1="468.1" x2="519.0" y2="474.1" stroke="white" stroke-width="2.4"/>
<line x1="519.0" y1="495.9" x2="519.0" y2="501.9" stroke="white" stroke-width="2.4"/>
<line x1="509.1" y1="478.0" x2="515.1" y2="478.0" stroke="white" stroke-width="2.4"/>
<line x1="536.9" y1="478.0" x2="542.9" y2="478.0" stroke="white" stroke-width="2.4"/>
<line x1="526.0" y1="468.1" x2="526.0" y2="474.1" stroke="white" stroke-width="2.4"/>
<line x1="526.0" y1="495.9" x2="526.0" y2="501.9" stroke="white" stroke-width="2.4"/>
<line x1="509.1" y1="485.0" x2="515.1" y2="485.0" stroke="white" stroke-width="2.4"/>
<line x1="536.9" y1="485.0" x2="542.9" y2="485.0" stroke="white" stroke-width="2.4"/>
<line x1="533.0" y1="468.1" x2="533.0" y2="474.1" stroke="white" stroke-width="2.4"/>
<line x1="533.0" y1="495.9" x2="533.0" y2="501.9" stroke="white" stroke-width="2.4"/>
<line x1="509.1" y1="492.0" x2="515.1" y2="492.0" stroke="white" stroke-width="2.4"/>
<line x1="536.9" y1="492.0" x2="542.9" y2="492.0" stroke="white" stroke-width="2.4"/>
<text x="570" y="479.0" font-family="Poppins, 'Segoe UI', Arial, sans-serif" font-size="18" font-weight="700" fill="#FFFFFF">Motor Driver</text>
<text x="570" y="503.0" font-family="Poppins, 'Segoe UI', Arial, sans-serif" font-size="14" font-weight="400" fill="#FFFFFF">Robot Motion</text>
<line x1="630.0" y1="530" x2="630.0" y2="680" stroke="#424242" stroke-width="2.4" marker-end="url(#arrowHead)"/>
<rect x="480" y="680" width="300" height="90" rx="16" fill="#A5D6A7" stroke="#1B5E20" stroke-width="1.5" filter="url(#softShadow)"/>
<rect x="500.0" y="699.0" width="52" height="52" rx="12" fill="#81C784"/>
<rect x="510.6" y="717.2" width="22.9" height="15.6" rx="4" fill="white"/>
<line x1="516.3" y1="721.2" x2="516.3" y2="728.8" stroke="#81C784" stroke-width="2.4"/>
<line x1="522.0" y1="721.2" x2="522.0" y2="728.8" stroke="#81C784" stroke-width="2.4"/>
<line x1="527.7" y1="721.2" x2="527.7" y2="728.8" stroke="#81C784" stroke-width="2.4"/>
<rect x="533.4" y="721.0" width="8.3" height="8" fill="white"/>
<text x="570" y="719.0" font-family="Poppins, 'Segoe UI', Arial, sans-serif" font-size="18" font-weight="700" fill="#1B5E20">Four DC Motors</text>
<text x="570" y="743.0" font-family="Poppins, 'Segoe UI', Arial, sans-serif" font-size="14" font-weight="400" fill="#616161">Robot Movement</text>
<rect x="920" y="440" width="300" height="90" rx="16" fill="#66BB6A" stroke="#1B5E20" stroke-width="1.5" filter="url(#softShadow)"/>
<rect x="940.0" y="459.0" width="52" height="52" rx="12" fill="#2196F3"/>
<path d="M 966.0 469.4 L 966.0 500.6 L 976.4 492.3 L 955.6 477.7 M 966.0 469.4 L 976.4 477.7 L 955.6 492.3 L 966.0 500.6" fill="none" stroke="white" stroke-width="2.6" stroke-linejoin="round" stroke-linecap="round"/>
<text x="1010" y="479.0" font-family="Poppins, 'Segoe UI', Arial, sans-serif" font-size="18" font-weight="700" fill="#FFFFFF">Bluetooth</text>
<text x="1010" y="503.0" font-family="Poppins, 'Segoe UI', Arial, sans-serif" font-size="14" font-weight="400" fill="#FFFFFF">Communication</text>
<line x1="1070.0" y1="530" x2="1070.0" y2="680" stroke="#424242" stroke-width="2.4" marker-end="url(#arrowHead)"/>
<rect x="920" y="680" width="300" height="90" rx="16" fill="#A5D6A7" stroke="#1B5E20" stroke-width="1.5" filter="url(#softShadow)"/>
<rect x="940.0" y="699.0" width="52" height="52" rx="12" fill="#81C784"/>
<rect x="958.2" y="711.5" width="15.6" height="27.0" rx="4" fill="none" stroke="white" stroke-width="2.6"/>
<line x1="958.2" y1="730.5" x2="973.8" y2="730.5" stroke="white" stroke-width="2"/>
<circle cx="966.0" cy="734.5" r="1.6" fill="white"/>
<text x="1010" y="719.0" font-family="Poppins, 'Segoe UI', Arial, sans-serif" font-size="18" font-weight="700" fill="#1B5E20">Mobile Device</text>
<text x="1010" y="743.0" font-family="Poppins, 'Segoe UI', Arial, sans-serif" font-size="14" font-weight="400" fill="#616161">Disease Alert</text>
<rect x="1260" y="158" width="300" height="612" rx="14" fill="white" stroke="#66BB6A" stroke-width="1.6" stroke-dasharray="6,5"/>
<text x="1410.0" y="194" text-anchor="middle" font-family="Poppins, 'Segoe UI', Arial, sans-serif" font-size="16" font-weight="700" fill="#2E7D32">LEGEND</text>
<rect x="1284" y="210" width="22" height="22" rx="4" fill="#2E7D32"/>
<text x="1318" y="226" font-family="Poppins, 'Segoe UI', Arial, sans-serif" font-size="13" font-weight="400" fill="#424242">Main Controller</text>
<rect x="1284" y="244" width="22" height="22" rx="4" fill="#66BB6A"/>
<text x="1318" y="260" font-family="Poppins, 'Segoe UI', Arial, sans-serif" font-size="13" font-weight="400" fill="#424242">Processing Modules</text>
<rect x="1284" y="278" width="22" height="22" rx="4" fill="#A5D6A7"/>
<text x="1318" y="294" font-family="Poppins, 'Segoe UI', Arial, sans-serif" font-size="13" font-weight="400" fill="#424242">Output / Actuators</text>
<line x1="1284" y1="322" x2="1306" y2="322" stroke="#424242" stroke-width="2.2" marker-end="url(#arrowHead)"/>
<text x="1318" y="326" font-family="Poppins, 'Segoe UI', Arial, sans-serif" font-size="13" font-weight="400" fill="#424242">Data / Control Flow</text>
<line x1="1280" y1="352" x2="1540" y2="352" stroke="#C8E6C9" stroke-width="1.4"/>
<text x="1284" y="382" font-family="Poppins, 'Segoe UI', Arial, sans-serif" font-size="14" font-weight="700" fill="#2E7D32">TECHNOLOGIES USED</text>
<rect x="1285.0" y="393.0" width="26" height="26" rx="12" fill="#2E7D32"/>
<circle cx="1298.0" cy="405.3" r="2.3" fill="white"/>
<circle cx="1301.7" cy="407.1" r="2.3" fill="white"/>
<circle cx="1302.6" cy="411.0" r="2.3" fill="white"/>
<circle cx="1300.0" cy="414.2" r="2.3" fill="white"/>
<circle cx="1296.0" cy="414.2" r="2.3" fill="white"/>
<circle cx="1293.4" cy="411.0" r="2.3" fill="white"/>
<circle cx="1294.3" cy="407.1" r="2.3" fill="white"/>
<path d="M 1298.0 400.3 q -12 -14 -22 -6 q 6 14 22 10 Z" fill="white"/>
<path d="M 1298.0 400.3 q 12 -14 22 -6 q -6 14 -22 10 Z" fill="white"/>
<text x="1320" y="412" font-family="Poppins, 'Segoe UI', Arial, sans-serif" font-size="13" font-weight="400" fill="#424242">Raspberry Pi 4</text>
<rect x="1285.0" y="427.0" width="26" height="26" rx="12" fill="#2E7D32"/>
<circle cx="1293.2" cy="438.3" r="3.9" fill="none" stroke="white" stroke-width="3.4"/>
<circle cx="1302.8" cy="438.3" r="3.9" fill="none" stroke="white" stroke-width="3.4"/>
<circle cx="1298.0" cy="443.5" r="3.9" fill="none" stroke="white" stroke-width="3.4"/>
<text x="1320" y="446" font-family="Poppins, 'Segoe UI', Arial, sans-serif" font-size="13" font-weight="400" fill="#424242">OpenCV</text>
<rect x="1285.0" y="461.0" width="26" height="26" rx="12" fill="#FB8C00"/>
<rect x="1294.1" y="467.2" width="7.8" height="4.2" fill="white"/>
<rect x="1296.2" y="467.2" width="3.6" height="13.5" fill="white"/>
<text x="1320" y="480" font-family="Poppins, 'Segoe UI', Arial, sans-serif" font-size="13" font-weight="400" fill="#424242">TensorFlow</text>
<rect x="1285.0" y="495.0" width="26" height="26" rx="12" fill="#2196F3"/>
<path d="M 1298.0 500.2 L 1298.0 515.8 L 1303.2 511.6 L 1292.8 504.4 M 1298.0 500.2 L 1303.2 504.4 L 1292.8 511.6 L 1298.0 515.8" fill="none" stroke="white" stroke-width="2.6" stroke-linejoin="round" stroke-linecap="round"/>
<text x="1320" y="514" font-family="Poppins, 'Segoe UI', Arial, sans-serif" font-size="13" font-weight="400" fill="#424242">Bluetooth</text>
<rect x="1285.0" y="529.0" width="26" height="26" rx="12" fill="#2E7D32"/>
<rect x="1288.3" y="538.1" width="11.4" height="7.8" rx="4" fill="white"/>
<line x1="1291.1" y1="542.1" x2="1291.1" y2="541.9" stroke="#2E7D32" stroke-width="2.4"/>
<line x1="1294.0" y1="542.1" x2="1294.0" y2="541.9" stroke="#2E7D32" stroke-width="2.4"/>
<line x1="1296.9" y1="542.1" x2="1296.9" y2="541.9" stroke="#2E7D32" stroke-width="2.4"/>
<rect x="1299.7" y="538.0" width="4.2" height="8" fill="white"/>
<text x="1320" y="548" font-family="Poppins, 'Segoe UI', Arial, sans-serif" font-size="13" font-weight="400" fill="#424242">DC Motors</text>
<line x1="1280" y1="588" x2="1540" y2="588" stroke="#C8E6C9" stroke-width="1.4"/>
<text x="1284" y="618" font-family="Poppins, 'Segoe UI', Arial, sans-serif" font-size="14" font-weight="700" fill="#2E7D32">DESCRIPTION</text>
<text x="1284" y="642" font-family="Poppins, 'Segoe UI', Arial, sans-serif" font-size="13" font-weight="400" fill="#424242">The system captures plant</text>
<text x="1284" y="662" font-family="Poppins, 'Segoe UI', Arial, sans-serif" font-size="13" font-weight="400" fill="#424242">images, processes them</text>
<text x="1284" y="682" font-family="Poppins, 'Segoe UI', Arial, sans-serif" font-size="13" font-weight="400" fill="#424242">using AI, detects diseases,</text>
<text x="1284" y="702" font-family="Poppins, 'Segoe UI', Arial, sans-serif" font-size="13" font-weight="400" fill="#424242">and navigates autonomously</text>
<text x="1284" y="722" font-family="Poppins, 'Segoe UI', Arial, sans-serif" font-size="13" font-weight="400" fill="#424242">while sending alerts via</text>
<text x="1284" y="742" font-family="Poppins, 'Segoe UI', Arial, sans-serif" font-size="13" font-weight="400" fill="#424242">Bluetooth.</text>
<rect x="0" y="920" width="1600" height="80" fill="#E8F5E9"/>
<line x1="0" y1="920" x2="1600" y2="920" stroke="#C8E6C9" stroke-width="1.5"/>
<rect x="91.0" y="949.0" width="22" height="22" rx="12" fill="#2E7D32"/>
<path d="M 95.4 966.6 Q 95.4 953.4 108.6 953.4 Q 108.6 966.6 95.4 966.6 Z" fill="white"/>
<line x1="96.1" y1="965.9" x2="106.6" y2="955.4" stroke="#2E7D32" stroke-width="2"/>
<text x="122.0" y="965.0" font-family="Poppins, 'Segoe UI', Arial, sans-serif" font-size="14" font-weight="500" fill="#2E7D32">Smart Farming</text>
<line x1="320.0" y1="936" x2="320.0" y2="984" stroke="#C8E6C9" stroke-width="1.4"/>
<rect x="411.0" y="949.0" width="22" height="22" rx="12" fill="#2E7D32"/>
<rect x="417.6" y="955.6" width="8.8" height="8.8" rx="6" fill="white"/>
<circle cx="420.2" cy="960.0" r="2.4" fill="#2E7D32"/>
<circle cx="423.8" cy="960.0" r="2.4" fill="#2E7D32"/>
<line x1="422.0" y1="955.6" x2="422.0" y2="949.6" stroke="white" stroke-width="2"/>
<text x="442.0" y="965.0" font-family="Poppins, 'Segoe UI', Arial, sans-serif" font-size="14" font-weight="500" fill="#2E7D32">Autonomous Robot</text>
<line x1="640.0" y1="936" x2="640.0" y2="984" stroke="#C8E6C9" stroke-width="1.4"/>
<rect x="731.0" y="949.0" width="22" height="22" rx="12" fill="#2E7D32"/>
<circle cx="742.0" cy="960.0" r="4.8" fill="none" stroke="white" stroke-width="2.4"/>
<path d="M 742.0 955.2 L 742.0 964.8" stroke="white" stroke-width="2"/>
<text x="762.0" y="965.0" font-family="Poppins, 'Segoe UI', Arial, sans-serif" font-size="14" font-weight="500" fill="#2E7D32">AI Powered</text>
<line x1="960.0" y1="936" x2="960.0" y2="984" stroke="#C8E6C9" stroke-width="1.4"/>
<rect x="1051.0" y="949.0" width="22" height="22" rx="12" fill="#2E7D32"/>
<path d="M 1055.8 962.5 A 6.2 6.2 0 0 1 1068.2 962.5" fill="none" stroke="white" stroke-width="2.4"/>
<path d="M 1058.0 961.6 A 4.0 4.0 0 0 1 1066.0 961.6" fill="none" stroke="white" stroke-width="2.4"/>
<path d="M 1060.2 960.7 A 1.8 1.8 0 0 1 1063.8 960.7" fill="none" stroke="white" stroke-width="2.4"/>
<circle cx="1062.0" cy="966.6" r="2.2" fill="white"/>
<text x="1082.0" y="965.0" font-family="Poppins, 'Segoe UI', Arial, sans-serif" font-size="14" font-weight="500" fill="#2E7D32">Wireless Communication</text>
<line x1="1280.0" y1="936" x2="1280.0" y2="984" stroke="#C8E6C9" stroke-width="1.4"/>
<rect x="1371.0" y="949.0" width="22" height="22" rx="12" fill="#2E7D32"/>
<path d="M 1382.0 953.7 L 1386.8 956.6 L 1386.8 961.5 Q 1386.8 966.3 1382.0 967.3 Q 1377.2 966.3 1377.2 961.5 L 1377.2 956.6 Z" fill="white"/>
<path d="M 1379.8 960.0 L 1381.5 961.9 L 1384.4 958.1" fill="none" stroke="#2E7D32" stroke-width="2.2" stroke-linecap="round" stroke-linejoin="round"/>
<text x="1402.0" y="965.0" font-family="Poppins, 'Segoe UI', Arial, sans-serif" font-size="14" font-weight="500" fill="#2E7D32">Precision Agriculture</text>
</svg>